<svg width="23" height="55" viewBox="0 0 23 55" fill="none" xmlns="http://www.w3.org/2000/svg">
<path d="M12.2497 0.527229C11.664 -0.0585556 10.7142 -0.0585556 10.1284 0.527229L0.582483 10.0732C-0.00330332 10.659 -0.00330328 11.6087 0.582484 12.1945C1.16827 12.7803 2.11802 12.7803 2.7038 12.1945L11.1891 3.70921L19.6744 12.1945C20.2602 12.7803 21.2099 12.7803 21.7957 12.1945C22.3815 11.6087 22.3815 10.659 21.7957 10.0732L12.2497 0.527229ZM12.6891 49.6131L12.6891 1.58789L9.68908 1.58789L9.68909 49.6131L12.6891 49.6131Z" fill="#5C5C5C"/>
<path d="M10.1284 54.1321C10.7142 54.7179 11.664 54.7179 12.2497 54.1321L21.7957 44.5862C22.3815 44.0004 22.3815 43.0506 21.7957 42.4648C21.2099 41.8791 20.2602 41.8791 19.6744 42.4648L11.1891 50.9501L2.70381 42.4648C2.11802 41.8791 1.16827 41.8791 0.582485 42.4648C-0.00330206 43.0506 -0.00330202 44.0004 0.582485 44.5862L10.1284 54.1321ZM12.6891 53.0714L12.6891 5.04626L9.68908 5.04626L9.68909 53.0714L12.6891 53.0714Z" fill="#5C5C5C"/>
</svg>
